HIERARCHY
ROOT Hips
{
	OFFSET 0.000000 0.000000 0.000000 
	CHANNELS 6 Xposition Yposition Zposition Zrotation Yrotation Xrotation
	JOINT LeftUpLeg
	{
		OFFSET 1.363060 -1.794630 0.839290 
		CHANNELS 3 Zrotation Yrotation Xrotation
		JOINT LeftLeg
		{
			OFFSET 2.448110 -6.726130 0.000000 
			CHANNELS 3 Zrotation Yrotation Xrotation
			JOINT LeftFoot
			{
				OFFSET 2.562200 -7.039590 0.000000 
				CHANNELS 3 Zrotation Yrotation Xrotation
				JOINT LeftToeBase
				{
					OFFSET 0.157640 -0.433110 2.322550 
					CHANNELS 3 Zrotation Yrotation Xrotation
					End Site
					{
						OFFSET 0.000000 0.000000 0.000000 
					}
				}
			}
		}
	}
	JOINT RightUpLeg
	{
		OFFSET -1.305520 -1.794630 0.839290 
		CHANNELS 3 Zrotation Yrotation Xrotation
		JOINT RightLeg
		{
			OFFSET -2.542530 -6.985550 0.000000 
			CHANNELS 3 Zrotation Yrotation Xrotation
			JOINT RightFoot
			{
				OFFSET -2.568260 -7.056230 0.000000 
				CHANNELS 3 Zrotation Yrotation Xrotation
				JOINT RightToeBase
				{
					OFFSET -0.164730 -0.452590 2.363150 
					CHANNELS 3 Zrotation Yrotation Xrotation
					End Site
					{
						OFFSET 0.000000 0.000000 0.000000 
					}
				}
			}
		}
	}
	JOINT Spine
	{
		OFFSET 0.028270 2.035590 -0.193380 
		CHANNELS 3 Zrotation Yrotation Xrotation
		JOINT Spine1
		{
			OFFSET 0.056720 2.048850 -0.042750 
			CHANNELS 3 Zrotation Yrotation Xrotation
			JOINT Neck1
			{
				OFFSET -0.054170 1.746240 0.172020 
				CHANNELS 3 Zrotation Yrotation Xrotation
				JOINT Head
				{
					OFFSET 0.104070 1.761360 -0.123970 
					CHANNELS 3 Zrotation Yrotation Xrotation
					End Site
					{
						OFFSET 0.000000 0.000000 0.000000 
					}
				}
			}
			JOINT LeftArm
			{
				OFFSET 3.362410 1.200890 -0.311210 
				CHANNELS 3 Zrotation Yrotation Xrotation
				JOINT LeftForeArm
				{
					OFFSET 4.983000 -0.000000 -0.000000 
					CHANNELS 3 Zrotation Yrotation Xrotation
					JOINT LeftHand
					{
						OFFSET 3.483560 -0.000000 -0.000000 
						CHANNELS 3 Zrotation Yrotation Xrotation
						JOINT LeftHandIndex1
						{
							OFFSET 0.715260 -0.000000 -0.000000 
							CHANNELS 3 Zrotation Yrotation Xrotation
							End Site
							{
								OFFSET 0.000000 0.000000 0.000000 
							}
						}
					}
				}
			}
			JOINT RightArm
			{
				OFFSET -3.136600 1.374050 -0.404650 
				CHANNELS 3 Zrotation Yrotation Xrotation
				JOINT RightForeArm
				{
					OFFSET -5.241900 -0.000000 -0.000000 
					CHANNELS 3 Zrotation Yrotation Xrotation
					JOINT RightHand
					{
						OFFSET -3.444170 -0.000000 -0.000000 
						CHANNELS 3 Zrotation Yrotation Xrotation
						JOINT RightHandIndex1
						{
							OFFSET -0.622530 -0.000000 -0.000000 
							CHANNELS 3 Zrotation Yrotation Xrotation
							End Site
							{
								OFFSET 0.000000 0.000000 0.000000 
							}
						}
					}
				}
			}
		}
	}
}
MOTION
Frames: 17
Frame Time: 0.041667
9.692700 11.715400 4.319300 -0.171600 -1.363800 18.478600 2.645300 -14.878500 -68.510600 0.000000 0.000000 0.000000 0.000000 0.000000 0.000000 0.000000 0.000000 0.000000 1.034400 11.833500 -65.790400 0.000000 0.000000 0.000000 0.000000 0.000000 0.000000 0.000000 0.000000 0.000000 -1.458300 0.693000 1.917600 -0.078600 0.316500 2.034300 0.057400 -1.602700 -13.202000 -1.331800 -1.165600 -2.370200 0.000000 0.000000 0.000000 0.000000 0.000000 0.000000 0.000000 0.000000 0.000000 0.000000 0.000000 0.000000 -25.008600 73.023600 -55.012300 -9.982000 16.711300 -1.469800 0.000000 0.000000 29.265500 7.125000 0.000000 0.000000 
9.695700 11.713600 4.318600 -0.219600 -1.365800 18.489100 2.699600 -14.870900 -68.552800 0.000000 0.000000 0.000000 0.000000 0.000000 0.000000 0.000000 0.000000 0.000000 1.060600 11.847000 -65.805700 0.000000 0.000000 0.000000 0.000000 0.000000 0.000000 0.000000 0.000000 0.000000 -1.459800 0.706100 1.928800 -0.125700 0.324100 2.062800 0.535100 -1.422200 -14.279500 -1.116000 -1.102100 -2.886600 0.000000 0.000000 0.000000 0.000000 0.000000 0.000000 0.000000 0.000000 0.000000 0.000000 0.000000 0.000000 -25.088100 73.070500 -55.401700 -9.954100 16.667800 -1.461800 0.000000 0.000000 29.517900 7.125000 0.000000 0.000000 
9.697400 11.714000 4.314600 -0.269000 -1.379800 18.518100 2.754700 -14.824000 -68.657000 0.000000 0.000000 0.000000 0.000000 0.000000 0.000000 0.000000 0.000000 0.000000 1.091500 11.903200 -65.845300 0.000000 0.000000 0.000000 0.000000 0.000000 0.000000 0.000000 0.000000 0.000000 -1.447600 0.727300 1.948900 -0.146000 0.335200 2.101800 -0.326200 -1.810400 -13.368600 -1.545500 -1.291500 -2.458000 0.000000 0.000000 0.000000 0.000000 0.000000 0.000000 0.000000 0.000000 0.000000 0.000000 0.000000 0.000000 -25.196800 73.048100 -55.535000 -9.945100 16.653700 -1.459200 0.000000 0.000000 29.482900 7.125000 0.000000 0.000000 
9.698300 11.714900 4.310200 -0.217400 -1.410000 18.525400 2.681200 -14.808200 -68.691600 0.000000 0.000000 0.000000 0.000000 0.000000 0.000000 0.000000 0.000000 0.000000 1.020200 11.911500 -65.893300 0.000000 0.000000 0.000000 0.000000 0.000000 0.000000 0.000000 0.000000 0.000000 -1.459800 0.736000 1.965700 -0.122000 0.338200 2.130000 0.161200 -1.612600 -13.644400 -1.306700 -1.188400 -2.576300 0.000000 0.000000 0.000000 0.000000 0.000000 0.000000 0.000000 0.000000 0.000000 0.000000 0.000000 0.000000 -25.214800 73.028000 -55.506800 -9.956000 16.670700 -1.462300 0.000000 0.000000 29.443200 7.125000 0.000000 0.000000 
9.701200 11.715600 4.306000 -0.136200 -1.371800 18.531600 2.612400 -14.921300 -68.729900 0.000000 0.000000 0.000000 0.000000 0.000000 0.000000 0.000000 0.000000 0.000000 0.901100 11.828000 -65.904300 0.000000 0.000000 0.000000 0.000000 0.000000 0.000000 0.000000 0.000000 0.000000 -1.477100 0.717700 1.953500 -0.112800 0.328600 2.105300 0.025600 -1.662700 -12.969300 -1.367200 -1.194300 -2.264100 0.000000 0.000000 0.000000 0.000000 0.000000 0.000000 0.000000 0.000000 0.000000 0.000000 0.000000 0.000000 -25.112800 72.979400 -55.122300 -9.980200 16.708500 -1.469200 0.000000 0.000000 29.180500 7.125000 0.000000 0.000000 
9.704400 11.716300 4.302800 -0.083800 -1.333400 18.527300 2.575400 -15.033100 -68.757300 0.000000 0.000000 0.000000 0.000000 0.000000 0.000000 0.000000 0.000000 0.000000 0.814200 11.752000 -65.892600 0.000000 0.000000 0.000000 0.000000 0.000000 0.000000 0.000000 0.000000 0.000000 -1.473100 0.703500 1.959000 -0.094100 0.321100 2.096500 0.132400 -1.705800 -13.240300 -1.327500 -1.224300 -2.362200 0.000000 0.000000 0.000000 0.000000 0.000000 0.000000 0.000000 0.000000 0.000000 0.000000 0.000000 0.000000 -25.087400 72.910200 -54.740100 -10.005700 16.748400 -1.476600 0.000000 0.000000 28.841400 7.125000 0.000000 0.000000 
9.706100 11.716600 4.302400 -0.037600 -1.364300 18.480300 2.482900 -15.031400 -68.692700 0.000000 0.000000 0.000000 0.000000 0.000000 0.000000 0.000000 0.000000 0.000000 0.783000 11.711700 -65.875700 0.000000 0.000000 0.000000 0.000000 0.000000 0.000000 0.000000 0.000000 0.000000 -1.459900 0.691100 1.943200 -0.043200 0.314300 2.039900 0.789900 -1.601800 -14.132400 -0.976200 -1.178200 -2.887800 0.000000 0.000000 0.000000 0.000000 0.000000 0.000000 0.000000 0.000000 0.000000 0.000000 0.000000 0.000000 -24.893500 72.932000 -54.302500 -10.042000 16.805200 -1.487100 0.000000 0.000000 28.623600 7.125000 0.000000 0.000000 
9.708000 11.716900 4.301000 -0.030900 -1.361200 18.462500 2.455000 -15.041100 -68.649300 0.000000 0.000000 0.000000 0.000000 0.000000 0.000000 0.000000 0.000000 0.000000 0.807400 11.644700 -65.881700 0.000000 0.000000 0.000000 0.000000 0.000000 0.000000 0.000000 0.000000 0.000000 -1.459900 0.679400 1.930600 -0.048500 0.309000 1.997000 0.035500 -1.654600 -13.467800 -1.367100 -1.207400 -2.521800 0.000000 0.000000 0.000000 0.000000 0.000000 0.000000 0.000000 0.000000 0.000000 0.000000 0.000000 0.000000 -24.768900 72.946700 -54.037800 -10.065500 16.842000 -1.493900 0.000000 0.000000 28.463200 7.125000 0.000000 0.000000 
9.709300 11.717500 4.297900 -0.058700 -1.352400 18.487000 2.495800 -15.049400 -68.662000 0.000000 0.000000 0.000000 0.000000 0.000000 0.000000 0.000000 0.000000 0.000000 0.829900 11.656900 -65.895800 0.000000 0.000000 0.000000 0.000000 0.000000 0.000000 0.000000 0.000000 0.000000 -1.467900 0.699700 2.011100 -0.086700 0.318600 2.121000 3.322700 -0.477000 -17.206600 0.282900 -0.674300 -4.492700 0.000000 0.000000 0.000000 0.000000 0.000000 0.000000 0.000000 0.000000 0.000000 0.000000 0.000000 0.000000 -25.055700 72.847400 -54.328100 -10.092700 16.884400 -1.501700 0.000000 0.000000 28.429100 7.125000 0.000000 0.000000 
9.709300 11.718400 4.295200 -0.075900 -1.382300 18.481500 2.504800 -15.017500 -68.676300 0.000000 0.000000 0.000000 0.000000 0.000000 0.000000 0.000000 0.000000 0.000000 0.827400 11.762800 -65.863300 0.000000 0.000000 0.000000 0.000000 0.000000 0.000000 0.000000 0.000000 0.000000 -1.464000 0.722100 2.052700 -0.084900 0.329000 2.180800 0.090500 -1.643200 -13.221100 -1.346000 -1.193300 -2.357200 0.000000 0.000000 0.000000 0.000000 0.000000 0.000000 0.000000 0.000000 0.000000 0.000000 0.000000 0.000000 -25.073600 72.785800 -54.290200 -10.142800 16.962600 -1.516300 0.000000 0.000000 28.352400 7.125000 0.000000 0.000000 
9.709400 11.719700 4.293600 -0.074700 -1.407200 18.468500 2.498000 -15.011700 -68.683800 0.000000 0.000000 0.000000 0.000000 0.000000 0.000000 0.000000 0.000000 0.000000 0.818700 11.803400 -65.846800 0.000000 0.000000 0.000000 0.000000 0.000000 0.000000 0.000000 0.000000 0.000000 -1.452600 0.720400 1.999300 -0.059500 0.328700 2.089900 3.943000 -0.144900 -18.054300 0.612900 -0.529600 -4.999600 0.000000 0.000000 0.000000 0.000000 0.000000 0.000000 0.000000 0.000000 0.000000 0.000000 0.000000 0.000000 -24.747000 72.797900 -53.711200 -10.184800 17.028100 -1.528600 0.000000 0.000000 28.145300 7.125000 0.000000 0.000000 
9.709900 11.720900 4.291900 -0.064100 -1.424400 18.461400 2.485800 -15.015700 -68.656500 0.000000 0.000000 0.000000 0.000000 0.000000 0.000000 0.000000 0.000000 0.000000 0.812400 11.772400 -65.880400 0.000000 0.000000 0.000000 0.000000 0.000000 0.000000 0.000000 0.000000 0.000000 -1.450100 0.723400 2.003000 -0.042300 0.329800 2.080700 0.067500 -1.635400 -13.296000 -1.354000 -1.191900 -2.412700 0.000000 0.000000 0.000000 0.000000 0.000000 0.000000 0.000000 0.000000 0.000000 0.000000 0.000000 0.000000 -24.744800 72.767800 -53.518000 -10.204300 17.058400 -1.534300 0.000000 0.000000 27.976100 7.125000 0.000000 0.000000 
9.711000 11.721300 4.290500 -0.068900 -1.445900 18.449500 2.475000 -14.992800 -68.629200 0.000000 0.000000 0.000000 0.000000 0.000000 0.000000 0.000000 0.000000 0.000000 0.809900 11.788900 -65.890400 0.000000 0.000000 0.000000 0.000000 0.000000 0.000000 0.000000 0.000000 0.000000 -1.447600 0.735100 2.075300 -0.041200 0.334200 2.190100 3.422500 -0.412200 -17.426500 0.342600 -0.646300 -4.618400 0.000000 0.000000 0.000000 0.000000 0.000000 0.000000 0.000000 0.000000 0.000000 0.000000 0.000000 0.000000 -25.091700 72.775600 -54.028600 -10.176800 17.015700 -1.526300 0.000000 0.000000 28.103700 7.125000 0.000000 0.000000 
9.712500 11.721300 4.291000 -0.102800 -1.460600 18.444700 2.507700 -14.970300 -68.621900 0.000000 0.000000 0.000000 0.000000 0.000000 0.000000 0.000000 0.000000 0.000000 0.827200 11.830000 -65.855200 0.000000 0.000000 0.000000 0.000000 0.000000 0.000000 0.000000 0.000000 0.000000 -1.456400 0.748600 2.137900 -0.087200 0.340900 2.301100 0.642700 -1.370100 -14.290200 -1.073500 -1.078500 -2.954800 0.000000 0.000000 0.000000 0.000000 0.000000 0.000000 0.000000 0.000000 0.000000 0.000000 0.000000 0.000000 -25.255900 72.778300 -54.296000 -10.178300 17.018000 -1.526700 0.000000 0.000000 28.124300 7.125000 0.000000 0.000000 
9.714900 11.722100 4.290600 -0.080200 -1.459800 18.461300 2.500200 -14.999200 -68.649700 0.000000 0.000000 0.000000 0.000000 0.000000 0.000000 0.000000 0.000000 0.000000 0.778200 11.802800 -65.888100 0.000000 0.000000 0.000000 0.000000 0.000000 0.000000 0.000000 0.000000 0.000000 -1.491200 0.749100 2.104700 -0.138500 0.342600 2.258400 3.342300 -0.204100 -17.542000 0.268000 -0.560500 -4.690300 0.000000 0.000000 0.000000 0.000000 0.000000 0.000000 0.000000 0.000000 0.000000 0.000000 0.000000 0.000000 -24.890300 72.721000 -53.590700 -10.238400 17.111600 -1.544400 0.000000 0.000000 27.688300 7.125000 0.000000 0.000000 
9.715900 11.723400 4.288900 -0.016100 -1.478900 18.473200 2.407900 -15.009500 -68.655700 0.000000 0.000000 0.000000 0.000000 0.000000 0.000000 0.000000 0.000000 0.000000 0.683900 11.784100 -65.964700 0.000000 0.000000 0.000000 0.000000 0.000000 0.000000 0.000000 0.000000 0.000000 -1.511500 0.749600 2.020800 -0.125500 0.343500 2.141800 0.723400 -1.842900 -13.844300 -0.998400 -1.290700 -2.860400 0.000000 0.000000 0.000000 0.000000 0.000000 0.000000 0.000000 0.000000 0.000000 0.000000 0.000000 0.000000 -24.341200 72.701600 -52.640900 -10.279600 17.175700 -1.556500 0.000000 0.000000 27.219100 7.125000 0.000000 0.000000 
9.715400 11.723500 4.287300 -0.042200 -1.511100 18.501800 2.412400 -14.949900 -68.685600 0.000000 0.000000 0.000000 0.000000 0.000000 0.000000 0.000000 0.000000 0.000000 0.689800 11.830100 -66.031400 0.000000 0.000000 0.000000 0.000000 0.000000 0.000000 0.000000 0.000000 0.000000 -1.506700 0.784000 2.036200 -0.125800 0.360200 2.199700 3.305200 -0.420100 -17.386300 0.264300 -0.663400 -4.698800 0.000000 0.000000 0.000000 0.000000 0.000000 0.000000 0.000000 0.000000 0.000000 0.000000 0.000000 0.000000 -24.179600 72.657600 -52.312200 -10.305300 17.215800 -1.564100 0.000000 0.000000 26.906600 7.125000 0.000000 0.000000 
